<svg version="1.1" width="417pt" height="40pt" viewBox="0.0 0.0 521.0 50.0" fill="none" stroke="none" stroke-linecap="square" stroke-miterlimit="10" xmlns:xlink="http://www.w3.org/1999/xlink" xmlns="http://www.w3.org/2000/svg"><clipPath id="p.0"><path d="m0 0l521.0 0l0 100.0l-521.0 0l0 -100.0z" clip-rule="nonzero"/></clipPath><g clip-path="url(#p.0)"><path fill="#000000" fill-opacity="0.0" d="m0 0l521.0 0l0 100.0l-521.0 0z" fill-rule="evenodd"/><path fill="#000000" fill-opacity="0.0" d="m5.984252 5.1128607l508.7874 0l0 28.7874l-508.7874 0z" fill-rule="evenodd"/><path stroke="#000000" stroke-width="1.0" stroke-linejoin="round" stroke-linecap="butt" d="m5.984252 5.1128607l508.7874 0l0 28.7874l-508.7874 0z" fill-rule="evenodd"/><path fill="#000000" fill-opacity="0.0" d="m22.127214 5.1128607l-0.25196838 28.7874" fill-rule="evenodd"/><path stroke="#000000" stroke-width="1.0" stroke-linejoin="round" stroke-linecap="butt" d="m22.127214 5.1128607l-0.25196838 28.7874" fill-rule="evenodd"/><path fill="#000000" fill-opacity="0.0" d="m38.018208 5.1128607l-0.25196838 28.7874" fill-rule="evenodd"/><path stroke="#000000" stroke-width="1.0" stroke-linejoin="round" stroke-linecap="butt" d="m38.018208 5.1128607l-0.25196838 28.7874" fill-rule="evenodd"/><path fill="#000000" fill-opacity="0.0" d="m53.909203 5.1128607l-0.25196838 28.7874" fill-rule="evenodd"/><path stroke="#000000" stroke-width="1.0" stroke-linejoin="round" stroke-linecap="butt" d="m53.909203 5.1128607l-0.25196838 28.7874" fill-rule="evenodd"/><path fill="#000000" fill-opacity="0.0" d="m69.80019 5.1128607l-0.25196838 28.7874" fill-rule="evenodd"/><path stroke="#000000" stroke-width="1.0" stroke-linejoin="round" stroke-linecap="butt" d="m69.80019 5.1128607l-0.25196838 28.7874" fill-rule="evenodd"/><path fill="#000000" fill-opacity="0.0" d="m85.69119 5.1128607l-0.25196838 28.7874" fill-rule="evenodd"/><path stroke="#000000" stroke-width="1.0" stroke-linejoin="round" stroke-linecap="butt" d="m85.69119 5.1128607l-0.25196838 28.7874" fill-rule="evenodd"/><path fill="#000000" fill-opacity="0.0" d="m101.582184 5.1128607l-0.25196838 28.7874" fill-rule="evenodd"/><path stroke="#000000" stroke-width="1.0" stroke-linejoin="round" stroke-linecap="butt" d="m101.582184 5.1128607l-0.25196838 28.7874" fill-rule="evenodd"/><path fill="#000000" fill-opacity="0.0" d="m117.47318 5.1128607l-0.25196838 28.7874" fill-rule="evenodd"/><path stroke="#000000" stroke-width="1.0" stroke-linejoin="round" stroke-linecap="butt" d="m117.47318 5.1128607l-0.25196838 28.7874" fill-rule="evenodd"/><path fill="#000000" fill-opacity="0.0" d="m133.36417 5.1128607l-0.25196838 28.7874" fill-rule="evenodd"/><path stroke="#000000" stroke-width="1.0" stroke-linejoin="round" stroke-linecap="butt" d="m133.36417 5.1128607l-0.25196838 28.7874" fill-rule="evenodd"/><path fill="#000000" fill-opacity="0.0" d="m149.25517 5.1128607l-0.25196838 28.7874" fill-rule="evenodd"/><path stroke="#000000" stroke-width="1.0" stroke-linejoin="round" stroke-linecap="butt" d="m149.25517 5.1128607l-0.25196838 28.7874" fill-rule="evenodd"/><path fill="#000000" fill-opacity="0.0" d="m165.14616 5.1128607l-0.25196838 28.7874" fill-rule="evenodd"/><path stroke="#000000" stroke-width="1.0" stroke-linejoin="round" stroke-linecap="butt" d="m165.14616 5.1128607l-0.25196838 28.7874" fill-rule="evenodd"/><path fill="#000000" fill-opacity="0.0" d="m181.03716 5.1128607l-0.25196838 28.7874" fill-rule="evenodd"/><path stroke="#000000" stroke-width="1.0" stroke-linejoin="round" stroke-linecap="butt" d="m181.03716 5.1128607l-0.25196838 28.7874" fill-rule="evenodd"/><path fill="#000000" fill-opacity="0.0" d="m196.92815 5.1128607l-0.25196838 28.7874" fill-rule="evenodd"/><path stroke="#000000" stroke-width="1.0" stroke-linejoin="round" stroke-linecap="butt" d="m196.92815 5.1128607l-0.25196838 28.7874" fill-rule="evenodd"/><path fill="#000000" fill-opacity="0.0" d="m212.81914 5.1128607l-0.25196838 28.7874" fill-rule="evenodd"/><path stroke="#000000" stroke-width="1.0" stroke-linejoin="round" stroke-linecap="butt" d="m212.81914 5.1128607l-0.25196838 28.7874" fill-rule="evenodd"/><path fill="#000000" fill-opacity="0.0" d="m228.71014 5.1128607l-0.25196838 28.7874" fill-rule="evenodd"/><path stroke="#000000" stroke-width="1.0" stroke-linejoin="round" stroke-linecap="butt" d="m228.71014 5.1128607l-0.25196838 28.7874" fill-rule="evenodd"/><path fill="#000000" fill-opacity="0.0" d="m244.60114 5.1128607l-0.25196838 28.7874" fill-rule="evenodd"/><path stroke="#000000" stroke-width="1.0" stroke-linejoin="round" stroke-linecap="butt" d="m244.60114 5.1128607l-0.25196838 28.7874" fill-rule="evenodd"/><path fill="#000000" fill-opacity="0.0" d="m260.49213 5.1128607l-0.25198364 28.7874" fill-rule="evenodd"/><path stroke="#000000" stroke-width="1.0" stroke-linejoin="round" stroke-linecap="butt" d="m260.49213 5.1128607l-0.25198364 28.7874" fill-rule="evenodd"/><path fill="#000000" fill-opacity="0.0" d="m276.38312 5.1128607l-0.25195312 28.7874" fill-rule="evenodd"/><path stroke="#000000" stroke-width="1.0" stroke-linejoin="round" stroke-linecap="butt" d="m276.38312 5.1128607l-0.25195312 28.7874" fill-rule="evenodd"/><path fill="#000000" fill-opacity="0.0" d="m292.2741 5.1128607l-0.25195312 28.7874" fill-rule="evenodd"/><path stroke="#000000" stroke-width="1.0" stroke-linejoin="round" stroke-linecap="butt" d="m292.2741 5.1128607l-0.25195312 28.7874" fill-rule="evenodd"/><path fill="#000000" fill-opacity="0.0" d="m308.1651 5.1128607l-0.25195312 28.7874" fill-rule="evenodd"/><path stroke="#000000" stroke-width="1.0" stroke-linejoin="round" stroke-linecap="butt" d="m308.1651 5.1128607l-0.25195312 28.7874" fill-rule="evenodd"/><path fill="#000000" fill-opacity="0.0" d="m324.0561 5.1128607l-0.25195312 28.7874" fill-rule="evenodd"/><path stroke="#000000" stroke-width="1.0" stroke-linejoin="round" stroke-linecap="butt" d="m324.0561 5.1128607l-0.25195312 28.7874" fill-rule="evenodd"/><path fill="#000000" fill-opacity="0.0" d="m339.94708 5.1128607l-0.25195312 28.7874" fill-rule="evenodd"/><path stroke="#000000" stroke-width="1.0" stroke-linejoin="round" stroke-linecap="butt" d="m339.94708 5.1128607l-0.25195312 28.7874" fill-rule="evenodd"/><path fill="#000000" fill-opacity="0.0" d="m355.8381 5.1128607l-0.25198364 28.7874" fill-rule="evenodd"/><path stroke="#000000" stroke-width="1.0" stroke-linejoin="round" stroke-linecap="butt" d="m355.8381 5.1128607l-0.25198364 28.7874" fill-rule="evenodd"/><path fill="#000000" fill-opacity="0.0" d="m371.7291 5.1128607l-0.25198364 28.7874" fill-rule="evenodd"/><path stroke="#000000" stroke-width="1.0" stroke-linejoin="round" stroke-linecap="butt" d="m371.7291 5.1128607l-0.25198364 28.7874" fill-rule="evenodd"/><path fill="#000000" fill-opacity="0.0" d="m387.6201 5.1128607l-0.25198364 28.7874" fill-rule="evenodd"/><path stroke="#000000" stroke-width="1.0" stroke-linejoin="round" stroke-linecap="butt" d="m387.6201 5.1128607l-0.25198364 28.7874" fill-rule="evenodd"/><path fill="#000000" fill-opacity="0.0" d="m403.51108 5.1128607l-0.25198364 28.7874" fill-rule="evenodd"/><path stroke="#000000" stroke-width="1.0" stroke-linejoin="round" stroke-linecap="butt" d="m403.51108 5.1128607l-0.25198364 28.7874" fill-rule="evenodd"/><path fill="#000000" fill-opacity="0.0" d="m419.40207 5.1128607l-0.25198364 28.7874" fill-rule="evenodd"/><path stroke="#000000" stroke-width="1.0" stroke-linejoin="round" stroke-linecap="butt" d="m419.40207 5.1128607l-0.25198364 28.7874" fill-rule="evenodd"/><path fill="#000000" fill-opacity="0.0" d="m435.29306 5.1128607l-0.25195312 28.7874" fill-rule="evenodd"/><path stroke="#000000" stroke-width="1.0" stroke-linejoin="round" stroke-linecap="butt" d="m435.29306 5.1128607l-0.25195312 28.7874" fill-rule="evenodd"/><path fill="#000000" fill-opacity="0.0" d="m451.18405 5.1128607l-0.25195312 28.7874" fill-rule="evenodd"/><path stroke="#000000" stroke-width="1.0" stroke-linejoin="round" stroke-linecap="butt" d="m451.18405 5.1128607l-0.25195312 28.7874" fill-rule="evenodd"/><path fill="#000000" fill-opacity="0.0" d="m467.07504 5.1128607l-0.25195312 28.7874" fill-rule="evenodd"/><path stroke="#000000" stroke-width="1.0" stroke-linejoin="round" stroke-linecap="butt" d="m467.07504 5.1128607l-0.25195312 28.7874" fill-rule="evenodd"/><path fill="#000000" fill-opacity="0.0" d="m482.96603 5.1128607l-0.25195312 28.7874" fill-rule="evenodd"/><path stroke="#000000" stroke-width="1.0" stroke-linejoin="round" stroke-linecap="butt" d="m482.96603 5.1128607l-0.25195312 28.7874" fill-rule="evenodd"/><path fill="#000000" fill-opacity="0.0" d="m498.85703 5.1128607l-0.25195312 28.7874" fill-rule="evenodd"/><path stroke="#000000" stroke-width="1.0" stroke-linejoin="round" stroke-linecap="butt" d="m498.85703 5.1128607l-0.25195312 28.7874" fill-rule="evenodd"/><path fill="#000000" fill-opacity="0.0" d="m-2.88 24.64l46.866142 0l0 35.559055l-46.866142 0z" fill-rule="evenodd"/><path fill="#000000" d="m6.6825 43.924374l1.171875 -0.15625q0.203125 1.0 0.6875 1.4375q0.484375 0.4375 1.171875 0.4375q0.828125 0 1.390625 -0.578125q0.578125 -0.578125 0.578125 -1.421875q0 -0.796875 -0.53125 -1.3125q-0.515625 -0.53125 -1.328125 -0.53125q-0.34375 0 -0.828125 0.125l0.125 -1.03125q0.125 0.015625 0.1875 0.015625q0.75 0 1.34375 -0.390625q0.609375 -0.390625 0.609375 -1.203125q0 -0.640625 -0.4375 -1.0625q-0.4375 -0.421875 -1.125 -0.421875q-0.6875 0 -1.140625 0.4375q-0.453125 0.421875 -0.59375 1.28125l-1.171875 -0.21875q0.21875 -1.171875 0.984375 -1.8125q0.765625 -0.65625 1.890625 -0.65625q0.78125 0 1.4375 0.34375q0.65625 0.328125 1.0 0.90625q0.359375 0.578125 0.359375 1.234375q0 0.609375 -0.34375 1.125q-0.328125 0.5 -0.96875 0.796875q0.84375 0.203125 1.3125 0.828125q0.46875 0.609375 0.46875 1.53125q0 1.25 -0.921875 2.125q-0.90625 0.859375 -2.296875 0.859375q-1.25 0 -2.09375 -0.75q-0.828125 -0.75 -0.9375 -1.9375zm11.818727 2.515625l-1.171875 0l0 -7.46875q-0.421875 0.40625 -1.109375 0.8125q-0.68750095 0.40625 -1.234376 0.609375l0 -1.140625q0.984375 -0.453125 1.718751 -1.109375q0.734375 -0.671875 1.03125 -1.28125l0.765625 0l0 9.578125z" fill-rule="nonzero"/><path fill="#000000" fill-opacity="0.0" d="m494.18634 24.64l36.881897 0l0 35.559055l-36.881897 0z" fill-rule="evenodd"/><path fill="#000000" d="m503.73322 41.736874q0 -1.6875 0.34375 -2.71875q0.359375 -1.03125 1.046875 -1.59375q0.6875 -0.5625 1.71875 -0.5625q0.78125 0 1.359375 0.3125q0.578125 0.296875 0.953125 0.890625q0.375 0.578125 0.59375 1.421875q0.21875 0.828125 0.21875 2.25q0 1.671875 -0.359375 2.703125q-0.34375 1.03125 -1.03125 1.59375q-0.671875 0.5625 -1.734375 0.5625q-1.375 0 -2.15625 -0.984375q-0.953125 -1.1875 -0.953125 -3.875zm1.203125 0q0 2.34375 0.546875 3.125q0.5625 0.78125 1.359375 0.78125q0.8125 0 1.359375 -0.78125q0.5625 -0.78125 0.5625 -3.125q0 -2.359375 -0.5625 -3.125q-0.546875 -0.78125 -1.359375 -0.78125q-0.8125 0 -1.296875 0.6875q-0.609375 0.875 -0.609375 3.21875z" fill-rule="nonzero"/><path fill="#000000" fill-opacity="0.0" d="m491.52 -1.28l36.881927 0l0 42.015747l-36.881927 0z" fill-rule="evenodd"/><path fill="#000000" d="m509.80124 18.858747l0 1.921875q0 2.515625 -1.203125 3.984375q-0.9375 1.15625 -2.359375 1.15625q-0.6875 0 -1.296875 -0.28125q-0.609375 -0.265625 -1.03125 -0.765625q-0.265625 -0.296875 -0.59375 -0.96875q-0.3125 -0.6875 -0.453125 -1.25q-0.21875 -0.796875 -0.21875 -1.875l0 -1.921875q0 -2.53125 1.203125 -3.984374q0.9375 -1.15625 2.359375 -1.15625q0.703125 0 1.296875 0.28125q0.609375 0.265625 1.03125 0.765625q0.28125 0.3125 0.59375 0.984375q0.3125 0.67187405 0.46875 1.234374q0.203125 0.796875 0.203125 1.875zm-0.78125 0.09375q0 -1.09375 -0.3125 -2.046875q-0.3125 -0.95312405 -0.703125 -1.515624q-0.234375 -0.328125 -0.59375 -0.5625q-0.53125 -0.328125 -1.1875 -0.328125q-1.3125 0 -2.0625 1.34375q-0.734375 1.328124 -0.734375 3.109374l0 1.71875q0 1.109375 0.3125 2.0625q0.3125 0.953125 0.703125 1.53125q0.21875 0.3125 0.59375 0.546875q0.53125 0.328125 1.203125 0.328125q1.296875 0 2.03125 -1.34375q0.75 -1.34375 0.75 -3.125l0 -1.71875z" fill-rule="nonzero"/><path fill="#000000" fill-opacity="0.0" d="m-0.96 -1.28l24.88189 0l0 42.015747l-24.88189 0z" fill-rule="evenodd"/><path fill="#000000" d="m17.32125 18.858747l0 1.921875q0 2.515625 -1.203125 3.984375q-0.93750095 1.15625 -2.359376 1.15625q-0.6875 0 -1.296875 -0.28125q-0.609375 -0.265625 -1.03125 -0.765625q-0.265625 -0.296875 -0.59375 -0.96875q-0.3125 -0.6875 -0.453125 -1.25q-0.21875 -0.796875 -0.21875 -1.875l0 -1.921875q0 -2.53125 1.203125 -3.984374q0.9375 -1.15625 2.359375 -1.15625q0.703125 0 1.296875 0.28125q0.609375 0.265625 1.031251 0.765625q0.28125 0.3125 0.59375 0.984375q0.3125 0.67187405 0.46875 1.234374q0.203125 0.796875 0.203125 1.875zm-0.78125 0.09375q0 -1.09375 -0.3125 -2.046875q-0.31250095 -0.95312405 -0.70312595 -1.515624q-0.234375 -0.328125 -0.59375 -0.5625q-0.53125 -0.328125 -1.1875 -0.328125q-1.3125 0 -2.0625 1.34375q-0.734375 1.328124 -0.734375 3.109374l0 1.71875q0 1.109375 0.3125 2.0625q0.3125 0.953125 0.703125 1.53125q0.21875 0.3125 0.59375 0.546875q0.53125 0.328125 1.203125 0.328125q1.296875 0 2.03125 -1.34375q0.75000095 -1.34375 0.75000095 -3.125l0 -1.71875z" fill-rule="nonzero"/><path fill="#000000" fill-opacity="0.0" d="m14.926452 -1.28l24.88189 0l0 42.015747l-24.88189 0z" fill-rule="evenodd"/><path fill="#000000" d="m33.207703 18.858747l0 1.921875q0 2.515625 -1.203125 3.984375q-0.9375 1.15625 -2.359375 1.15625q-0.6875 0 -1.296875 -0.28125q-0.609375 -0.265625 -1.03125 -0.765625q-0.265625 -0.296875 -0.59375 -0.96875q-0.3125 -0.6875 -0.453125 -1.25q-0.21875 -0.796875 -0.21875 -1.875l0 -1.921875q0 -2.53125 1.203125 -3.984374q0.9375 -1.15625 2.359375 -1.15625q0.703125 0 1.296875 0.28125q0.609375 0.265625 1.03125 0.765625q0.28125 0.3125 0.59375 0.984375q0.3125 0.67187405 0.46875 1.234374q0.203125 0.796875 0.203125 1.875zm-0.78125 0.09375q0 -1.09375 -0.3125 -2.046875q-0.3125 -0.95312405 -0.703125 -1.515624q-0.234375 -0.328125 -0.59375 -0.5625q-0.53125 -0.328125 -1.1875 -0.328125q-1.3125 0 -2.0625 1.34375q-0.734375 1.328124 -0.734375 3.109374l0 1.71875q0 1.109375 0.3125 2.0625q0.3125 0.953125 0.703125 1.53125q0.21875 0.3125 0.59375 0.546875q0.53125 0.328125 1.203125 0.328125q1.296875 0 2.03125 -1.34375q0.75 -1.34375 0.75 -3.125l0 -1.71875z" fill-rule="nonzero"/><path fill="#000000" fill-opacity="0.0" d="m30.812902 -1.28l24.881891 0l0 42.015747l-24.881891 0z" fill-rule="evenodd"/><path fill="#000000" d="m49.094154 18.858747l0 1.921875q0 2.515625 -1.203125 3.984375q-0.9375 1.15625 -2.359375 1.15625q-0.6875 0 -1.296875 -0.28125q-0.609375 -0.265625 -1.03125 -0.765625q-0.265625 -0.296875 -0.59375 -0.96875q-0.3125 -0.6875 -0.453125 -1.25q-0.21875 -0.796875 -0.21875 -1.875l0 -1.921875q0 -2.53125 1.203125 -3.984374q0.9375 -1.15625 2.359375 -1.15625q0.703125 0 1.296875 0.28125q0.609375 0.265625 1.03125 0.765625q0.28125 0.3125 0.59375 0.984375q0.3125 0.67187405 0.46875 1.234374q0.203125 0.796875 0.203125 1.875zm-0.78125 0.09375q0 -1.09375 -0.3125 -2.046875q-0.3125 -0.95312405 -0.703125 -1.515624q-0.234375 -0.328125 -0.59375 -0.5625q-0.53125 -0.328125 -1.1875 -0.328125q-1.3125 0 -2.0625 1.34375q-0.734375 1.328124 -0.734375 3.109374l0 1.71875q0 1.109375 0.3125 2.0625q0.3125 0.953125 0.703125 1.53125q0.21875 0.3125 0.59375 0.546875q0.53125 0.328125 1.203125 0.328125q1.296875 0 2.03125 -1.34375q0.75 -1.34375 0.75 -3.125l0 -1.71875z" fill-rule="nonzero"/><path fill="#000000" fill-opacity="0.0" d="m46.699356 -1.28l24.88189 0l0 42.015747l-24.88189 0z" fill-rule="evenodd"/><path fill="#000000" d="m64.980606 18.858747l0 1.921875q0 2.515625 -1.203125 3.984375q-0.9375 1.15625 -2.359375 1.15625q-0.6875 0 -1.296875 -0.28125q-0.609375 -0.265625 -1.03125 -0.765625q-0.265625 -0.296875 -0.59375 -0.96875q-0.3125 -0.6875 -0.453125 -1.25q-0.21875 -0.796875 -0.21875 -1.875l0 -1.921875q0 -2.53125 1.203125 -3.984374q0.9375 -1.15625 2.359375 -1.15625q0.703125 0 1.296875 0.28125q0.609375 0.265625 1.03125 0.765625q0.28125 0.3125 0.59375 0.984375q0.3125 0.67187405 0.46875 1.234374q0.203125 0.796875 0.203125 1.875zm-0.78125 0.09375q0 -1.09375 -0.3125 -2.046875q-0.3125 -0.95312405 -0.703125 -1.515624q-0.234375 -0.328125 -0.59375 -0.5625q-0.53125 -0.328125 -1.1875 -0.328125q-1.3125 0 -2.0625 1.34375q-0.734375 1.328124 -0.734375 3.109374l0 1.71875q0 1.109375 0.3125 2.0625q0.3125 0.953125 0.703125 1.53125q0.21875 0.3125 0.59375 0.546875q0.53125 0.328125 1.203125 0.328125q1.296875 0 2.03125 -1.34375q0.75 -1.34375 0.75 -3.125l0 -1.71875z" fill-rule="nonzero"/><path fill="#000000" fill-opacity="0.0" d="m62.585808 -1.28l24.88189 0l0 42.015747l-24.88189 0z" fill-rule="evenodd"/><path fill="#000000" d="m80.86706 18.858747l0 1.921875q0 2.515625 -1.203125 3.984375q-0.9375 1.15625 -2.359375 1.15625q-0.6875 0 -1.296875 -0.28125q-0.609375 -0.265625 -1.03125 -0.765625q-0.265625 -0.296875 -0.59375 -0.96875q-0.3125 -0.6875 -0.453125 -1.25q-0.21875 -0.796875 -0.21875 -1.875l0 -1.921875q0 -2.53125 1.203125 -3.984374q0.9375 -1.15625 2.359375 -1.15625q0.703125 0 1.296875 0.28125q0.609375 0.265625 1.03125 0.765625q0.28125 0.3125 0.59375 0.984375q0.3125 0.67187405 0.46875 1.234374q0.203125 0.796875 0.203125 1.875zm-0.78125 0.09375q0 -1.09375 -0.3125 -2.046875q-0.3125 -0.95312405 -0.703125 -1.515624q-0.234375 -0.328125 -0.59375 -0.5625q-0.53125 -0.328125 -1.1875 -0.328125q-1.3125 0 -2.0625 1.34375q-0.734375 1.328124 -0.734375 3.109374l0 1.71875q0 1.109375 0.3125 2.0625q0.3125 0.953125 0.703125 1.53125q0.21875 0.3125 0.59375 0.546875q0.53125 0.328125 1.203125 0.328125q1.296875 0 2.03125 -1.34375q0.75 -1.34375 0.75 -3.125l0 -1.71875z" fill-rule="nonzero"/><path fill="#000000" fill-opacity="0.0" d="m78.47226 -1.28l24.88189 0l0 42.015747l-24.88189 0z" fill-rule="evenodd"/><path fill="#000000" d="m96.75351 18.858747l0 1.921875q0 2.515625 -1.203125 3.984375q-0.9375 1.15625 -2.359375 1.15625q-0.6875 0 -1.296875 -0.28125q-0.609375 -0.265625 -1.03125 -0.765625q-0.265625 -0.296875 -0.59375 -0.96875q-0.3125 -0.6875 -0.453125 -1.25q-0.21875 -0.796875 -0.21875 -1.875l0 -1.921875q0 -2.53125 1.203125 -3.984374q0.9375 -1.15625 2.359375 -1.15625q0.703125 0 1.296875 0.28125q0.609375 0.265625 1.03125 0.765625q0.28125 0.3125 0.59375 0.984375q0.3125 0.67187405 0.46875 1.234374q0.203125 0.796875 0.203125 1.875zm-0.78125 0.09375q0 -1.09375 -0.3125 -2.046875q-0.3125 -0.95312405 -0.703125 -1.515624q-0.234375 -0.328125 -0.59375 -0.5625q-0.53125 -0.328125 -1.1875 -0.328125q-1.3125 0 -2.0625 1.34375q-0.734375 1.328124 -0.734375 3.109374l0 1.71875q0 1.109375 0.3125 2.0625q0.3125 0.953125 0.703125 1.53125q0.21875 0.3125 0.59375 0.546875q0.53125 0.328125 1.203125 0.328125q1.296875 0 2.03125 -1.34375q0.75 -1.34375 0.75 -3.125l0 -1.71875z" fill-rule="nonzero"/><path fill="#000000" fill-opacity="0.0" d="m94.35871 -1.28l24.88189 0l0 42.015747l-24.88189 0z" fill-rule="evenodd"/><path fill="#000000" d="m112.63996 18.858747l0 1.921875q0 2.515625 -1.203125 3.984375q-0.9375 1.15625 -2.359375 1.15625q-0.6875 0 -1.296875 -0.28125q-0.609375 -0.265625 -1.03125 -0.765625q-0.265625 -0.296875 -0.59375 -0.96875q-0.3125 -0.6875 -0.453125 -1.25q-0.21875 -0.796875 -0.21875 -1.875l0 -1.921875q0 -2.53125 1.203125 -3.984374q0.9375 -1.15625 2.359375 -1.15625q0.703125 0 1.296875 0.28125q0.609375 0.265625 1.03125 0.765625q0.28125 0.3125 0.59375 0.984375q0.3125 0.67187405 0.46875 1.234374q0.203125 0.796875 0.203125 1.875zm-0.78125 0.09375q0 -1.09375 -0.3125 -2.046875q-0.3125 -0.95312405 -0.703125 -1.515624q-0.234375 -0.328125 -0.59375 -0.5625q-0.53125 -0.328125 -1.1875 -0.328125q-1.3125 0 -2.0625 1.34375q-0.734375 1.328124 -0.734375 3.109374l0 1.71875q0 1.109375 0.3125 2.0625q0.3125 0.953125 0.703125 1.53125q0.21875 0.3125 0.59375 0.546875q0.53125 0.328125 1.203125 0.328125q1.296875 0 2.03125 -1.34375q0.75 -1.34375 0.75 -3.125l0 -1.71875z" fill-rule="nonzero"/><path fill="#000000" fill-opacity="0.0" d="m110.24516 -1.28l24.881882 0l0 42.015747l-24.881882 0z" fill-rule="evenodd"/><path fill="#000000" d="m128.52641 18.858747l0 1.921875q0 2.515625 -1.203125 3.984375q-0.9375 1.15625 -2.359375 1.15625q-0.6875 0 -1.296875 -0.28125q-0.609375 -0.265625 -1.03125 -0.765625q-0.265625 -0.296875 -0.59375 -0.96875q-0.3125 -0.6875 -0.453125 -1.25q-0.21875 -0.796875 -0.21875 -1.875l0 -1.921875q0 -2.53125 1.203125 -3.984374q0.9375 -1.15625 2.359375 -1.15625q0.703125 0 1.296875 0.28125q0.609375 0.265625 1.03125 0.765625q0.28125 0.3125 0.59375 0.984375q0.3125 0.67187405 0.46875 1.234374q0.203125 0.796875 0.203125 1.875zm-0.78125 0.09375q0 -1.09375 -0.3125 -2.046875q-0.3125 -0.95312405 -0.703125 -1.515624q-0.234375 -0.328125 -0.59375 -0.5625q-0.53125 -0.328125 -1.1875 -0.328125q-1.3125 0 -2.0625 1.34375q-0.734375 1.328124 -0.734375 3.109374l0 1.71875q0 1.109375 0.3125 2.0625q0.3125 0.953125 0.703125 1.53125q0.21875 0.3125 0.59375 0.546875q0.53125 0.328125 1.203125 0.328125q1.296875 0 2.03125 -1.34375q0.75 -1.34375 0.75 -3.125l0 -1.71875z" fill-rule="nonzero"/><path fill="#000000" fill-opacity="0.0" d="m126.131615 -1.28l24.88189 0l0 42.015747l-24.88189 0z" fill-rule="evenodd"/><path fill="#000000" d="m144.41286 18.858747l0 1.921875q0 2.515625 -1.203125 3.984375q-0.9375 1.15625 -2.359375 1.15625q-0.6875 0 -1.296875 -0.28125q-0.609375 -0.265625 -1.03125 -0.765625q-0.265625 -0.296875 -0.59375 -0.96875q-0.3125 -0.6875 -0.453125 -1.25q-0.21875 -0.796875 -0.21875 -1.875l0 -1.921875q0 -2.53125 1.203125 -3.984374q0.9375 -1.15625 2.359375 -1.15625q0.703125 0 1.296875 0.28125q0.609375 0.265625 1.03125 0.765625q0.28125 0.3125 0.59375 0.984375q0.3125 0.67187405 0.46875 1.234374q0.203125 0.796875 0.203125 1.875zm-0.78125 0.09375q0 -1.09375 -0.3125 -2.046875q-0.3125 -0.95312405 -0.703125 -1.515624q-0.234375 -0.328125 -0.59375 -0.5625q-0.53125 -0.328125 -1.1875 -0.328125q-1.3125 0 -2.0625 1.34375q-0.734375 1.328124 -0.734375 3.109374l0 1.71875q0 1.109375 0.3125 2.0625q0.3125 0.953125 0.703125 1.53125q0.21875 0.3125 0.59375 0.546875q0.53125 0.328125 1.203125 0.328125q1.296875 0 2.03125 -1.34375q0.75 -1.34375 0.75 -3.125l0 -1.71875z" fill-rule="nonzero"/><path fill="#000000" fill-opacity="0.0" d="m142.01807 -1.28l24.881882 0l0 42.015747l-24.881882 0z" fill-rule="evenodd"/><path fill="#000000" d="m160.29932 18.858747l0 1.921875q0 2.515625 -1.203125 3.984375q-0.9375 1.15625 -2.359375 1.15625q-0.6875 0 -1.296875 -0.28125q-0.609375 -0.265625 -1.03125 -0.765625q-0.265625 -0.296875 -0.59375 -0.96875q-0.3125 -0.6875 -0.453125 -1.25q-0.21875 -0.796875 -0.21875 -1.875l0 -1.921875q0 -2.53125 1.203125 -3.984374q0.9375 -1.15625 2.359375 -1.15625q0.703125 0 1.296875 0.28125q0.609375 0.265625 1.03125 0.765625q0.28125 0.3125 0.59375 0.984375q0.3125 0.67187405 0.46875 1.234374q0.203125 0.796875 0.203125 1.875zm-0.78125 0.09375q0 -1.09375 -0.3125 -2.046875q-0.3125 -0.95312405 -0.703125 -1.515624q-0.234375 -0.328125 -0.59375 -0.5625q-0.53125 -0.328125 -1.1875 -0.328125q-1.3125 0 -2.0625 1.34375q-0.734375 1.328124 -0.734375 3.109374l0 1.71875q0 1.109375 0.3125 2.0625q0.3125 0.953125 0.703125 1.53125q0.21875 0.3125 0.59375 0.546875q0.53125 0.328125 1.203125 0.328125q1.296875 0 2.03125 -1.34375q0.75 -1.34375 0.75 -3.125l0 -1.71875z" fill-rule="nonzero"/><path fill="#000000" fill-opacity="0.0" d="m157.90451 -1.28l24.881897 0l0 42.015747l-24.881897 0z" fill-rule="evenodd"/><path fill="#000000" d="m176.18576 18.858747l0 1.921875q0 2.515625 -1.203125 3.984375q-0.9375 1.15625 -2.359375 1.15625q-0.6875 0 -1.296875 -0.28125q-0.609375 -0.265625 -1.03125 -0.765625q-0.265625 -0.296875 -0.59375 -0.96875q-0.3125 -0.6875 -0.453125 -1.25q-0.21875 -0.796875 -0.21875 -1.875l0 -1.921875q0 -2.53125 1.203125 -3.984374q0.9375 -1.15625 2.359375 -1.15625q0.703125 0 1.296875 0.28125q0.609375 0.265625 1.03125 0.765625q0.28125 0.3125 0.59375 0.984375q0.3125 0.67187405 0.46875 1.234374q0.203125 0.796875 0.203125 1.875zm-0.78125 0.09375q0 -1.09375 -0.3125 -2.046875q-0.3125 -0.95312405 -0.703125 -1.515624q-0.234375 -0.328125 -0.59375 -0.5625q-0.53125 -0.328125 -1.1875 -0.328125q-1.3125 0 -2.0625 1.34375q-0.734375 1.328124 -0.734375 3.109374l0 1.71875q0 1.109375 0.3125 2.0625q0.3125 0.953125 0.703125 1.53125q0.21875 0.3125 0.59375 0.546875q0.53125 0.328125 1.203125 0.328125q1.296875 0 2.03125 -1.34375q0.75 -1.34375 0.75 -3.125l0 -1.71875z" fill-rule="nonzero"/><path fill="#000000" fill-opacity="0.0" d="m173.79097 -1.28l24.881882 0l0 42.015747l-24.881882 0z" fill-rule="evenodd"/><path fill="#000000" d="m192.07222 18.858747l0 1.921875q0 2.515625 -1.203125 3.984375q-0.9375 1.15625 -2.359375 1.15625q-0.6875 0 -1.296875 -0.28125q-0.609375 -0.265625 -1.03125 -0.765625q-0.265625 -0.296875 -0.59375 -0.96875q-0.3125 -0.6875 -0.453125 -1.25q-0.21875 -0.796875 -0.21875 -1.875l0 -1.921875q0 -2.53125 1.203125 -3.984374q0.9375 -1.15625 2.359375 -1.15625q0.703125 0 1.296875 0.28125q0.609375 0.265625 1.03125 0.765625q0.28125 0.3125 0.59375 0.984375q0.3125 0.67187405 0.46875 1.234374q0.203125 0.796875 0.203125 1.875zm-0.78125 0.09375q0 -1.09375 -0.3125 -2.046875q-0.3125 -0.95312405 -0.703125 -1.515624q-0.234375 -0.328125 -0.59375 -0.5625q-0.53125 -0.328125 -1.1875 -0.328125q-1.3125 0 -2.0625 1.34375q-0.734375 1.328124 -0.734375 3.109374l0 1.71875q0 1.109375 0.3125 2.0625q0.3125 0.953125 0.703125 1.53125q0.21875 0.3125 0.59375 0.546875q0.53125 0.328125 1.203125 0.328125q1.296875 0 2.03125 -1.34375q0.75 -1.34375 0.75 -3.125l0 -1.71875z" fill-rule="nonzero"/><path fill="#000000" fill-opacity="0.0" d="m189.67741 -1.28l24.881897 0l0 42.015747l-24.881897 0z" fill-rule="evenodd"/><path fill="#000000" d="m207.95866 18.858747l0 1.921875q0 2.515625 -1.203125 3.984375q-0.9375 1.15625 -2.359375 1.15625q-0.6875 0 -1.296875 -0.28125q-0.609375 -0.265625 -1.03125 -0.765625q-0.265625 -0.296875 -0.59375 -0.96875q-0.3125 -0.6875 -0.453125 -1.25q-0.21875 -0.796875 -0.21875 -1.875l0 -1.921875q0 -2.53125 1.203125 -3.984374q0.9375 -1.15625 2.359375 -1.15625q0.703125 0 1.296875 0.28125q0.609375 0.265625 1.03125 0.765625q0.28125 0.3125 0.59375 0.984375q0.3125 0.67187405 0.46875 1.234374q0.203125 0.796875 0.203125 1.875zm-0.78125 0.09375q0 -1.09375 -0.3125 -2.046875q-0.3125 -0.95312405 -0.703125 -1.515624q-0.234375 -0.328125 -0.59375 -0.5625q-0.53125 -0.328125 -1.1875 -0.328125q-1.3125 0 -2.0625 1.34375q-0.734375 1.328124 -0.734375 3.109374l0 1.71875q0 1.109375 0.3125 2.0625q0.3125 0.953125 0.703125 1.53125q0.21875 0.3125 0.59375 0.546875q0.53125 0.328125 1.203125 0.328125q1.296875 0 2.03125 -1.34375q0.75 -1.34375 0.75 -3.125l0 -1.71875z" fill-rule="nonzero"/><path fill="#000000" fill-opacity="0.0" d="m205.56387 -1.28l24.881882 0l0 42.015747l-24.881882 0z" fill-rule="evenodd"/><path fill="#000000" d="m223.84512 18.858747l0 1.921875q0 2.515625 -1.203125 3.984375q-0.9375 1.15625 -2.359375 1.15625q-0.6875 0 -1.296875 -0.28125q-0.609375 -0.265625 -1.03125 -0.765625q-0.265625 -0.296875 -0.59375 -0.96875q-0.3125 -0.6875 -0.453125 -1.25q-0.21875 -0.796875 -0.21875 -1.875l0 -1.921875q0 -2.53125 1.203125 -3.984374q0.9375 -1.15625 2.359375 -1.15625q0.703125 0 1.296875 0.28125q0.609375 0.265625 1.03125 0.765625q0.28125 0.3125 0.59375 0.984375q0.3125 0.67187405 0.46875 1.234374q0.203125 0.796875 0.203125 1.875zm-0.78125 0.09375q0 -1.09375 -0.3125 -2.046875q-0.3125 -0.95312405 -0.703125 -1.515624q-0.234375 -0.328125 -0.59375 -0.5625q-0.53125 -0.328125 -1.1875 -0.328125q-1.3125 0 -2.0625 1.34375q-0.734375 1.328124 -0.734375 3.109374l0 1.71875q0 1.109375 0.3125 2.0625q0.3125 0.953125 0.703125 1.53125q0.21875 0.3125 0.59375 0.546875q0.53125 0.328125 1.203125 0.328125q1.296875 0 2.03125 -1.34375q0.75 -1.34375 0.75 -3.125l0 -1.71875z" fill-rule="nonzero"/><path fill="#000000" fill-opacity="0.0" d="m221.45032 -1.28l24.881897 0l0 42.015747l-24.881897 0z" fill-rule="evenodd"/><path fill="#000000" d="m239.73157 18.858747l0 1.921875q0 2.515625 -1.203125 3.984375q-0.9375 1.15625 -2.359375 1.15625q-0.6875 0 -1.296875 -0.28125q-0.609375 -0.265625 -1.03125 -0.765625q-0.265625 -0.296875 -0.59375 -0.96875q-0.3125 -0.6875 -0.453125 -1.25q-0.21875 -0.796875 -0.21875 -1.875l0 -1.921875q0 -2.53125 1.203125 -3.984374q0.9375 -1.15625 2.359375 -1.15625q0.703125 0 1.296875 0.28125q0.609375 0.265625 1.03125 0.765625q0.28125 0.3125 0.59375 0.984375q0.3125 0.67187405 0.46875 1.234374q0.203125 0.796875 0.203125 1.875zm-0.78125 0.09375q0 -1.09375 -0.3125 -2.046875q-0.3125 -0.95312405 -0.703125 -1.515624q-0.234375 -0.328125 -0.59375 -0.5625q-0.53125 -0.328125 -1.1875 -0.328125q-1.3125 0 -2.0625 1.34375q-0.734375 1.328124 -0.734375 3.109374l0 1.71875q0 1.109375 0.3125 2.0625q0.3125 0.953125 0.703125 1.53125q0.21875 0.3125 0.59375 0.546875q0.53125 0.328125 1.203125 0.328125q1.296875 0 2.03125 -1.34375q0.75 -1.34375 0.75 -3.125l0 -1.71875z" fill-rule="nonzero"/><path fill="#000000" fill-opacity="0.0" d="m237.33678 -1.28l24.881882 0l0 42.015747l-24.881882 0z" fill-rule="evenodd"/><path fill="#000000" d="m255.61803 18.858747l0 1.921875q0 2.515625 -1.203125 3.984375q-0.9375 1.15625 -2.359375 1.15625q-0.6875 0 -1.296875 -0.28125q-0.609375 -0.265625 -1.03125 -0.765625q-0.265625 -0.296875 -0.59375 -0.96875q-0.3125 -0.6875 -0.453125 -1.25q-0.21875 -0.796875 -0.21875 -1.875l0 -1.921875q0 -2.53125 1.203125 -3.984374q0.9375 -1.15625 2.359375 -1.15625q0.703125 0 1.296875 0.28125q0.609375 0.265625 1.03125 0.765625q0.28125 0.3125 0.59375 0.984375q0.3125 0.67187405 0.46875 1.234374q0.203125 0.796875 0.203125 1.875zm-0.78125 0.09375q0 -1.09375 -0.3125 -2.046875q-0.3125 -0.95312405 -0.703125 -1.515624q-0.234375 -0.328125 -0.59375 -0.5625q-0.53125 -0.328125 -1.1875 -0.328125q-1.3125 0 -2.0625 1.34375q-0.734375 1.328124 -0.734375 3.109374l0 1.71875q0 1.109375 0.3125 2.0625q0.3125 0.953125 0.703125 1.53125q0.21875 0.3125 0.59375 0.546875q0.53125 0.328125 1.203125 0.328125q1.296875 0 2.03125 -1.34375q0.75 -1.34375 0.75 -3.125l0 -1.71875z" fill-rule="nonzero"/><path fill="#000000" fill-opacity="0.0" d="m253.22322 -1.28l24.881882 0l0 42.015747l-24.881882 0z" fill-rule="evenodd"/><path fill="#000000" d="m271.5045 18.858747l0 1.921875q0 2.515625 -1.203125 3.984375q-0.9375 1.15625 -2.359375 1.15625q-0.6875 0 -1.296875 -0.28125q-0.609375 -0.265625 -1.03125 -0.765625q-0.265625 -0.296875 -0.59375 -0.96875q-0.3125 -0.6875 -0.453125 -1.25q-0.21875 -0.796875 -0.21875 -1.875l0 -1.921875q0 -2.53125 1.203125 -3.984374q0.9375 -1.15625 2.359375 -1.15625q0.703125 0 1.296875 0.28125q0.609375 0.265625 1.03125 0.765625q0.28125 0.3125 0.59375 0.984375q0.3125 0.67187405 0.46875 1.234374q0.203125 0.796875 0.203125 1.875zm-0.78125 0.09375q0 -1.09375 -0.3125 -2.046875q-0.3125 -0.95312405 -0.703125 -1.515624q-0.234375 -0.328125 -0.59375 -0.5625q-0.53125 -0.328125 -1.1875 -0.328125q-1.3125 0 -2.0625 1.34375q-0.734375 1.328124 -0.734375 3.109374l0 1.71875q0 1.109375 0.3125 2.0625q0.3125 0.953125 0.703125 1.53125q0.21875 0.3125 0.59375 0.546875q0.53125 0.328125 1.203125 0.328125q1.296875 0 2.03125 -1.34375q0.75 -1.34375 0.75 -3.125l0 -1.71875z" fill-rule="nonzero"/><path fill="#000000" fill-opacity="0.0" d="m269.10968 -1.28l24.881897 0l0 42.015747l-24.881897 0z" fill-rule="evenodd"/><path fill="#000000" d="m287.39093 18.858747l0 1.921875q0 2.515625 -1.203125 3.984375q-0.9375 1.15625 -2.359375 1.15625q-0.6875 0 -1.296875 -0.28125q-0.609375 -0.265625 -1.03125 -0.765625q-0.265625 -0.296875 -0.59375 -0.96875q-0.3125 -0.6875 -0.453125 -1.25q-0.21875 -0.796875 -0.21875 -1.875l0 -1.921875q0 -2.53125 1.203125 -3.984374q0.9375 -1.15625 2.359375 -1.15625q0.703125 0 1.296875 0.28125q0.609375 0.265625 1.03125 0.765625q0.28125 0.3125 0.59375 0.984375q0.3125 0.67187405 0.46875 1.234374q0.203125 0.796875 0.203125 1.875zm-0.78125 0.09375q0 -1.09375 -0.3125 -2.046875q-0.3125 -0.95312405 -0.703125 -1.515624q-0.234375 -0.328125 -0.59375 -0.5625q-0.53125 -0.328125 -1.1875 -0.328125q-1.3125 0 -2.0625 1.34375q-0.734375 1.328124 -0.734375 3.109374l0 1.71875q0 1.109375 0.3125 2.0625q0.3125 0.953125 0.703125 1.53125q0.21875 0.3125 0.59375 0.546875q0.53125 0.328125 1.203125 0.328125q1.296875 0 2.03125 -1.34375q0.75 -1.34375 0.75 -3.125l0 -1.71875z" fill-rule="nonzero"/><path fill="#000000" fill-opacity="0.0" d="m284.99612 -1.28l24.881897 0l0 42.015747l-24.881897 0z" fill-rule="evenodd"/><path fill="#000000" d="m303.27737 18.858747l0 1.921875q0 2.515625 -1.203125 3.984375q-0.9375 1.15625 -2.359375 1.15625q-0.6875 0 -1.296875 -0.28125q-0.609375 -0.265625 -1.03125 -0.765625q-0.265625 -0.296875 -0.59375 -0.96875q-0.3125 -0.6875 -0.453125 -1.25q-0.21875 -0.796875 -0.21875 -1.875l0 -1.921875q0 -2.53125 1.203125 -3.984374q0.9375 -1.15625 2.359375 -1.15625q0.703125 0 1.296875 0.28125q0.609375 0.265625 1.03125 0.765625q0.28125 0.3125 0.59375 0.984375q0.3125 0.67187405 0.46875 1.234374q0.203125 0.796875 0.203125 1.875zm-0.78125 0.09375q0 -1.09375 -0.3125 -2.046875q-0.3125 -0.95312405 -0.703125 -1.515624q-0.234375 -0.328125 -0.59375 -0.5625q-0.53125 -0.328125 -1.1875 -0.328125q-1.3125 0 -2.0625 1.34375q-0.734375 1.328124 -0.734375 3.109374l0 1.71875q0 1.109375 0.3125 2.0625q0.3125 0.953125 0.703125 1.53125q0.21875 0.3125 0.59375 0.546875q0.53125 0.328125 1.203125 0.328125q1.296875 0 2.03125 -1.34375q0.75 -1.34375 0.75 -3.125l0 -1.71875z" fill-rule="nonzero"/><path fill="#000000" fill-opacity="0.0" d="m300.88257 -1.28l24.881897 0l0 42.015747l-24.881897 0z" fill-rule="evenodd"/><path fill="#000000" d="m319.16382 18.858747l0 1.921875q0 2.515625 -1.203125 3.984375q-0.9375 1.15625 -2.359375 1.15625q-0.6875 0 -1.296875 -0.28125q-0.609375 -0.265625 -1.03125 -0.765625q-0.265625 -0.296875 -0.59375 -0.96875q-0.3125 -0.6875 -0.453125 -1.25q-0.21875 -0.796875 -0.21875 -1.875l0 -1.921875q0 -2.53125 1.203125 -3.984374q0.9375 -1.15625 2.359375 -1.15625q0.703125 0 1.296875 0.28125q0.609375 0.265625 1.03125 0.765625q0.28125 0.3125 0.59375 0.984375q0.3125 0.67187405 0.46875 1.234374q0.203125 0.796875 0.203125 1.875zm-0.78125 0.09375q0 -1.09375 -0.3125 -2.046875q-0.3125 -0.95312405 -0.703125 -1.515624q-0.234375 -0.328125 -0.59375 -0.5625q-0.53125 -0.328125 -1.1875 -0.328125q-1.3125 0 -2.0625 1.34375q-0.734375 1.328124 -0.734375 3.109374l0 1.71875q0 1.109375 0.3125 2.0625q0.3125 0.953125 0.703125 1.53125q0.21875 0.3125 0.59375 0.546875q0.53125 0.328125 1.203125 0.328125q1.296875 0 2.03125 -1.34375q0.75 -1.34375 0.75 -3.125l0 -1.71875z" fill-rule="nonzero"/><path fill="#000000" fill-opacity="0.0" d="m316.76904 -1.28l24.881866 0l0 42.015747l-24.881866 0z" fill-rule="evenodd"/><path fill="#000000" d="m335.0503 18.858747l0 1.921875q0 2.515625 -1.203125 3.984375q-0.9375 1.15625 -2.359375 1.15625q-0.6875 0 -1.296875 -0.28125q-0.609375 -0.265625 -1.03125 -0.765625q-0.265625 -0.296875 -0.59375 -0.96875q-0.3125 -0.6875 -0.453125 -1.25q-0.21875 -0.796875 -0.21875 -1.875l0 -1.921875q0 -2.53125 1.203125 -3.984374q0.9375 -1.15625 2.359375 -1.15625q0.703125 0 1.296875 0.28125q0.609375 0.265625 1.03125 0.765625q0.28125 0.3125 0.59375 0.984375q0.3125 0.67187405 0.46875 1.234374q0.203125 0.796875 0.203125 1.875zm-0.78125 0.09375q0 -1.09375 -0.3125 -2.046875q-0.3125 -0.95312405 -0.703125 -1.515624q-0.234375 -0.328125 -0.59375 -0.5625q-0.53125 -0.328125 -1.1875 -0.328125q-1.3125 0 -2.0625 1.34375q-0.734375 1.328124 -0.734375 3.109374l0 1.71875q0 1.109375 0.3125 2.0625q0.3125 0.953125 0.703125 1.53125q0.21875 0.3125 0.59375 0.546875q0.53125 0.328125 1.203125 0.328125q1.296875 0 2.03125 -1.34375q0.75 -1.34375 0.75 -3.125l0 -1.71875z" fill-rule="nonzero"/><path fill="#000000" fill-opacity="0.0" d="m332.6555 -1.28l24.881897 0l0 42.015747l-24.881897 0z" fill-rule="evenodd"/><path fill="#000000" d="m350.93674 18.858747l0 1.921875q0 2.515625 -1.203125 3.984375q-0.9375 1.15625 -2.359375 1.15625q-0.6875 0 -1.296875 -0.28125q-0.609375 -0.265625 -1.03125 -0.765625q-0.265625 -0.296875 -0.59375 -0.96875q-0.3125 -0.6875 -0.453125 -1.25q-0.21875 -0.796875 -0.21875 -1.875l0 -1.921875q0 -2.53125 1.203125 -3.984374q0.9375 -1.15625 2.359375 -1.15625q0.703125 0 1.296875 0.28125q0.609375 0.265625 1.03125 0.765625q0.28125 0.3125 0.59375 0.984375q0.3125 0.67187405 0.46875 1.234374q0.203125 0.796875 0.203125 1.875zm-0.78125 0.09375q0 -1.09375 -0.3125 -2.046875q-0.3125 -0.95312405 -0.703125 -1.515624q-0.234375 -0.328125 -0.59375 -0.5625q-0.53125 -0.328125 -1.1875 -0.328125q-1.3125 0 -2.0625 1.34375q-0.734375 1.328124 -0.734375 3.109374l0 1.71875q0 1.109375 0.3125 2.0625q0.3125 0.953125 0.703125 1.53125q0.21875 0.3125 0.59375 0.546875q0.53125 0.328125 1.203125 0.328125q1.296875 0 2.03125 -1.34375q0.75 -1.34375 0.75 -3.125l0 -1.71875z" fill-rule="nonzero"/><path fill="#000000" fill-opacity="0.0" d="m348.54193 -1.28l24.881897 0l0 42.015747l-24.881897 0z" fill-rule="evenodd"/><path fill="#000000" d="m366.82318 18.858747l0 1.921875q0 2.515625 -1.203125 3.984375q-0.9375 1.15625 -2.359375 1.15625q-0.6875 0 -1.296875 -0.28125q-0.609375 -0.265625 -1.03125 -0.765625q-0.265625 -0.296875 -0.59375 -0.96875q-0.3125 -0.6875 -0.453125 -1.25q-0.21875 -0.796875 -0.21875 -1.875l0 -1.921875q0 -2.53125 1.203125 -3.984374q0.9375 -1.15625 2.359375 -1.15625q0.703125 0 1.296875 0.28125q0.609375 0.265625 1.03125 0.765625q0.28125 0.3125 0.59375 0.984375q0.3125 0.67187405 0.46875 1.234374q0.203125 0.796875 0.203125 1.875zm-0.78125 0.09375q0 -1.09375 -0.3125 -2.046875q-0.3125 -0.95312405 -0.703125 -1.515624q-0.234375 -0.328125 -0.59375 -0.5625q-0.53125 -0.328125 -1.1875 -0.328125q-1.3125 0 -2.0625 1.34375q-0.734375 1.328124 -0.734375 3.109374l0 1.71875q0 1.109375 0.3125 2.0625q0.3125 0.953125 0.703125 1.53125q0.21875 0.3125 0.59375 0.546875q0.53125 0.328125 1.203125 0.328125q1.296875 0 2.03125 -1.34375q0.75 -1.34375 0.75 -3.125l0 -1.71875z" fill-rule="nonzero"/><path fill="#000000" fill-opacity="0.0" d="m364.42838 -1.28l24.881897 0l0 42.015747l-24.881897 0z" fill-rule="evenodd"/><path fill="#000000" d="m382.70963 18.858747l0 1.921875q0 2.515625 -1.203125 3.984375q-0.9375 1.15625 -2.359375 1.15625q-0.6875 0 -1.296875 -0.28125q-0.609375 -0.265625 -1.03125 -0.765625q-0.265625 -0.296875 -0.59375 -0.96875q-0.3125 -0.6875 -0.453125 -1.25q-0.21875 -0.796875 -0.21875 -1.875l0 -1.921875q0 -2.53125 1.203125 -3.984374q0.9375 -1.15625 2.359375 -1.15625q0.703125 0 1.296875 0.28125q0.609375 0.265625 1.03125 0.765625q0.28125 0.3125 0.59375 0.984375q0.3125 0.67187405 0.46875 1.234374q0.203125 0.796875 0.203125 1.875zm-0.78125 0.09375q0 -1.09375 -0.3125 -2.046875q-0.3125 -0.95312405 -0.703125 -1.515624q-0.234375 -0.328125 -0.59375 -0.5625q-0.53125 -0.328125 -1.1875 -0.328125q-1.3125 0 -2.0625 1.34375q-0.734375 1.328124 -0.734375 3.109374l0 1.71875q0 1.109375 0.3125 2.0625q0.3125 0.953125 0.703125 1.53125q0.21875 0.3125 0.59375 0.546875q0.53125 0.328125 1.203125 0.328125q1.296875 0 2.03125 -1.34375q0.75 -1.34375 0.75 -3.125l0 -1.71875z" fill-rule="nonzero"/><path fill="#000000" fill-opacity="0.0" d="m380.31485 -1.28l24.881866 0l0 42.015747l-24.881866 0z" fill-rule="evenodd"/><path fill="#000000" d="m398.5961 18.858747l0 1.921875q0 2.515625 -1.203125 3.984375q-0.9375 1.15625 -2.359375 1.15625q-0.6875 0 -1.296875 -0.28125q-0.609375 -0.265625 -1.03125 -0.765625q-0.265625 -0.296875 -0.59375 -0.96875q-0.3125 -0.6875 -0.453125 -1.25q-0.21875 -0.796875 -0.21875 -1.875l0 -1.921875q0 -2.53125 1.203125 -3.984374q0.9375 -1.15625 2.359375 -1.15625q0.703125 0 1.296875 0.28125q0.609375 0.265625 1.03125 0.765625q0.28125 0.3125 0.59375 0.984375q0.3125 0.67187405 0.46875 1.234374q0.203125 0.796875 0.203125 1.875zm-0.78125 0.09375q0 -1.09375 -0.3125 -2.046875q-0.3125 -0.95312405 -0.703125 -1.515624q-0.234375 -0.328125 -0.59375 -0.5625q-0.53125 -0.328125 -1.1875 -0.328125q-1.3125 0 -2.0625 1.34375q-0.734375 1.328124 -0.734375 3.109374l0 1.71875q0 1.109375 0.3125 2.0625q0.3125 0.953125 0.703125 1.53125q0.21875 0.3125 0.59375 0.546875q0.53125 0.328125 1.203125 0.328125q1.296875 0 2.03125 -1.34375q0.75 -1.34375 0.75 -3.125l0 -1.71875z" fill-rule="nonzero"/><path fill="#000000" fill-opacity="0.0" d="m396.2013 -1.28l24.881897 0l0 42.015747l-24.881897 0z" fill-rule="evenodd"/><path fill="#000000" d="m414.48254 18.858747l0 1.921875q0 2.515625 -1.203125 3.984375q-0.9375 1.15625 -2.359375 1.15625q-0.6875 0 -1.296875 -0.28125q-0.609375 -0.265625 -1.03125 -0.765625q-0.265625 -0.296875 -0.59375 -0.96875q-0.3125 -0.6875 -0.453125 -1.25q-0.21875 -0.796875 -0.21875 -1.875l0 -1.921875q0 -2.53125 1.203125 -3.984374q0.9375 -1.15625 2.359375 -1.15625q0.703125 0 1.296875 0.28125q0.609375 0.265625 1.03125 0.765625q0.28125 0.3125 0.59375 0.984375q0.3125 0.67187405 0.46875 1.234374q0.203125 0.796875 0.203125 1.875zm-0.78125 0.09375q0 -1.09375 -0.3125 -2.046875q-0.3125 -0.95312405 -0.703125 -1.515624q-0.234375 -0.328125 -0.59375 -0.5625q-0.53125 -0.328125 -1.1875 -0.328125q-1.3125 0 -2.0625 1.34375q-0.734375 1.328124 -0.734375 3.109374l0 1.71875q0 1.109375 0.3125 2.0625q0.3125 0.953125 0.703125 1.53125q0.21875 0.3125 0.59375 0.546875q0.53125 0.328125 1.203125 0.328125q1.296875 0 2.03125 -1.34375q0.75 -1.34375 0.75 -3.125l0 -1.71875z" fill-rule="nonzero"/><path fill="#000000" fill-opacity="0.0" d="m412.08774 -1.28l24.881897 0l0 42.015747l-24.881897 0z" fill-rule="evenodd"/><path fill="#000000" d="m430.369 18.858747l0 1.921875q0 2.515625 -1.203125 3.984375q-0.9375 1.15625 -2.359375 1.15625q-0.6875 0 -1.296875 -0.28125q-0.609375 -0.265625 -1.03125 -0.765625q-0.265625 -0.296875 -0.59375 -0.96875q-0.3125 -0.6875 -0.453125 -1.25q-0.21875 -0.796875 -0.21875 -1.875l0 -1.921875q0 -2.53125 1.203125 -3.984374q0.9375 -1.15625 2.359375 -1.15625q0.703125 0 1.296875 0.28125q0.609375 0.265625 1.03125 0.765625q0.28125 0.3125 0.59375 0.984375q0.3125 0.67187405 0.46875 1.234374q0.203125 0.796875 0.203125 1.875zm-0.78125 0.09375q0 -1.09375 -0.3125 -2.046875q-0.3125 -0.95312405 -0.703125 -1.515624q-0.234375 -0.328125 -0.59375 -0.5625q-0.53125 -0.328125 -1.1875 -0.328125q-1.3125 0 -2.0625 1.34375q-0.734375 1.328124 -0.734375 3.109374l0 1.71875q0 1.109375 0.3125 2.0625q0.3125 0.953125 0.703125 1.53125q0.21875 0.3125 0.59375 0.546875q0.53125 0.328125 1.203125 0.328125q1.296875 0 2.03125 -1.34375q0.75 -1.34375 0.75 -3.125l0 -1.71875z" fill-rule="nonzero"/><path fill="#000000" fill-opacity="0.0" d="m427.97418 -1.28l24.881897 0l0 42.015747l-24.881897 0z" fill-rule="evenodd"/><path fill="#000000" d="m446.25543 18.858747l0 1.921875q0 2.515625 -1.203125 3.984375q-0.9375 1.15625 -2.359375 1.15625q-0.6875 0 -1.296875 -0.28125q-0.609375 -0.265625 -1.03125 -0.765625q-0.265625 -0.296875 -0.59375 -0.96875q-0.3125 -0.6875 -0.453125 -1.25q-0.21875 -0.796875 -0.21875 -1.875l0 -1.921875q0 -2.53125 1.203125 -3.984374q0.9375 -1.15625 2.359375 -1.15625q0.703125 0 1.296875 0.28125q0.609375 0.265625 1.03125 0.765625q0.28125 0.3125 0.59375 0.984375q0.3125 0.67187405 0.46875 1.234374q0.203125 0.796875 0.203125 1.875zm-0.78125 0.09375q0 -1.09375 -0.3125 -2.046875q-0.3125 -0.95312405 -0.703125 -1.515624q-0.234375 -0.328125 -0.59375 -0.5625q-0.53125 -0.328125 -1.1875 -0.328125q-1.3125 0 -2.0625 1.34375q-0.734375 1.328124 -0.734375 3.109374l0 1.71875q0 1.109375 0.3125 2.0625q0.3125 0.953125 0.703125 1.53125q0.21875 0.3125 0.59375 0.546875q0.53125 0.328125 1.203125 0.328125q1.296875 0 2.03125 -1.34375q0.75 -1.34375 0.75 -3.125l0 -1.71875z" fill-rule="nonzero"/><path fill="#000000" fill-opacity="0.0" d="m443.86066 -1.28l24.881866 0l0 42.015747l-24.881866 0z" fill-rule="evenodd"/><path fill="#000000" d="m458.9544 13.843123l0 11.015624l2.671875 0q0.265625 0 0.390625 0.109375q0.125 0.109375 0.125 0.28125q0 0.171875 -0.125 0.28125q-0.125 0.109375 -0.390625 0.109375l-6.125 0q-0.28125 0 -0.40625 -0.109375q-0.125 -0.109375 -0.125 -0.28125q0 -0.171875 0.125 -0.28125q0.125 -0.109375 0.40625 -0.109375l2.671875 0l0 -9.937499l-2.546875 0.796875q-0.1875 0.046875 -0.265625 0.046875q-0.140625 0 -0.265625 -0.109375q-0.109375 -0.125 -0.109375 -0.28125q0 -0.140625 0.09375 -0.25q0.078125 -0.078125 0.3125 -0.15625l3.5625 -1.125z" fill-rule="nonzero"/><path fill="#000000" fill-opacity="0.0" d="m459.7471 -1.28l24.881897 0l0 42.015747l-24.881897 0z" fill-rule="evenodd"/><path fill="#000000" d="m478.02835 18.858747l0 1.921875q0 2.515625 -1.203125 3.984375q-0.9375 1.15625 -2.359375 1.15625q-0.6875 0 -1.296875 -0.28125q-0.609375 -0.265625 -1.03125 -0.765625q-0.265625 -0.296875 -0.59375 -0.96875q-0.3125 -0.6875 -0.453125 -1.25q-0.21875 -0.796875 -0.21875 -1.875l0 -1.921875q0 -2.53125 1.203125 -3.984374q0.9375 -1.15625 2.359375 -1.15625q0.703125 0 1.296875 0.28125q0.609375 0.265625 1.03125 0.765625q0.28125 0.3125 0.59375 0.984375q0.3125 0.67187405 0.46875 1.234374q0.203125 0.796875 0.203125 1.875zm-0.78125 0.09375q0 -1.09375 -0.3125 -2.046875q-0.3125 -0.95312405 -0.703125 -1.515624q-0.234375 -0.328125 -0.59375 -0.5625q-0.53125 -0.328125 -1.1875 -0.328125q-1.3125 0 -2.0625 1.34375q-0.734375 1.328124 -0.734375 3.109374l0 1.71875q0 1.109375 0.3125 2.0625q0.3125 0.953125 0.703125 1.53125q0.21875 0.3125 0.59375 0.546875q0.53125 0.328125 1.203125 0.328125q1.296875 0 2.03125 -1.34375q0.75 -1.34375 0.75 -3.125l0 -1.71875z" fill-rule="nonzero"/><path fill="#000000" fill-opacity="0.0" d="m475.63354 -1.28l24.881897 0l0 42.015747l-24.881897 0z" fill-rule="evenodd"/><path fill="#000000" d="m490.7273 13.843123l0 11.015624l2.671875 0q0.265625 0 0.390625 0.109375q0.125 0.109375 0.125 0.28125q0 0.171875 -0.125 0.28125q-0.125 0.109375 -0.390625 0.109375l-6.125 0q-0.28125 0 -0.40625 -0.109375q-0.125 -0.109375 -0.125 -0.28125q0 -0.171875 0.125 -0.28125q0.125 -0.109375 0.40625 -0.109375l2.671875 0l0 -9.937499l-2.546875 0.796875q-0.1875 0.046875 -0.265625 0.046875q-0.140625 0 -0.265625 -0.109375q-0.109375 -0.125 -0.109375 -0.28125q0 -0.140625 0.09375 -0.25q0.078125 -0.078125 0.3125 -0.15625l3.5625 -1.125z" fill-rule="nonzero"/></g></svg>
