<?xml version="1.0" encoding="UTF-8" standalone="no"?>
<!DOCTYPE svg PUBLIC "-//W3C//DTD SVG 1.1//EN"
 "http://www.w3.org/Graphics/SVG/1.1/DTD/svg11.dtd">
<!-- Generated by graphviz version 2.48.0 (0)
 -->
<!-- Pages: 1 -->
<svg width="162pt" height="144pt"
 viewBox="0.00 0.00 162.00 144.00" xmlns="http://www.w3.org/2000/svg" xmlns:xlink="http://www.w3.org/1999/xlink">
<g id="graph0" class="graph" transform="scale(1 1) rotate(0) translate(4 140)">
<polygon fill="white" stroke="transparent" points="-4,4 -4,-140 158,-140 158,4 -4,4"/>
<!-- 0 -->
<g id="node1" class="node">
<title>0</title>
<ellipse fill="none" stroke="black" cx="27" cy="-118" rx="27" ry="18"/>
<text text-anchor="middle" x="27" y="-113.4" font-family="Times,serif" font-size="14.00">0</text>
</g>
<!-- 1 -->
<g id="node2" class="node">
<title>1</title>
<ellipse fill="none" stroke="black" cx="127" cy="-118" rx="27" ry="18"/>
<text text-anchor="middle" x="127" y="-113.4" font-family="Times,serif" font-size="14.00">1</text>
</g>
<!-- 0&#45;&gt;1 -->
<g id="edge1" class="edge">
<title>0&#45;&gt;1</title>
<path fill="none" stroke="black" d="M54.06,-118C65.07,-118 77.97,-118 89.83,-118"/>
<polygon fill="black" stroke="black" points="89.92,-121.5 99.92,-118 89.92,-114.5 89.92,-121.5"/>
</g>
<!-- 3 -->
<g id="node4" class="node">
<title>3</title>
<ellipse fill="none" stroke="black" cx="127" cy="-18" rx="27" ry="18"/>
<text text-anchor="middle" x="127" y="-13.4" font-family="Times,serif" font-size="14.00">3</text>
</g>
<!-- 0&#45;&gt;3 -->
<g id="edge2" class="edge">
<title>0&#45;&gt;3</title>
<path fill="none" stroke="black" d="M42.19,-102.81C58.88,-86.12 85.84,-59.16 104.88,-40.12"/>
<polygon fill="black" stroke="black" points="107.4,-42.55 112,-33 102.45,-37.6 107.4,-42.55"/>
</g>
<!-- 1&#45;&gt;3 -->
<g id="edge3" class="edge">
<title>1&#45;&gt;3</title>
<path fill="none" stroke="black" d="M127,-99.66C127,-84.72 127,-63.37 127,-46.24"/>
<polygon fill="black" stroke="black" points="130.5,-46.23 127,-36.23 123.5,-46.23 130.5,-46.23"/>
</g>
<!-- 2 -->
<g id="node3" class="node">
<title>2</title>
<ellipse fill="none" stroke="black" cx="27" cy="-18" rx="27" ry="18"/>
<text text-anchor="middle" x="27" y="-13.4" font-family="Times,serif" font-size="14.00">2</text>
</g>
<!-- 2&#45;&gt;0 -->
<g id="edge5" class="edge">
<title>2&#45;&gt;0</title>
<path fill="none" stroke="black" d="M27,-36.34C27,-51.28 27,-72.63 27,-89.76"/>
<polygon fill="black" stroke="black" points="23.5,-89.77 27,-99.77 30.5,-89.77 23.5,-89.77"/>
</g>
<!-- 3&#45;&gt;2 -->
<g id="edge4" class="edge">
<title>3&#45;&gt;2</title>
<path fill="none" stroke="black" d="M99.94,-18C88.93,-18 76.03,-18 64.17,-18"/>
<polygon fill="black" stroke="black" points="64.08,-14.5 54.08,-18 64.08,-21.5 64.08,-14.5"/>
</g>
</g>
</svg>
